<svg width="60" height="60" viewBox="0 0 60 60" fill="none" xmlns="http://www.w3.org/2000/svg">
<path d="M14.5161 3.87097H24.1935V5.80646H14.5161V3.87097Z" fill="#227FEB"/>
<path d="M17.4194 11.6129H15.4839V22.2581H13.5484V14.5161H11.6129V22.2581H9.67743V17.4194H7.74194V22.2581H5.80646V24.1936H19.3548V22.2581H17.4194V11.6129Z" fill="#227FEB"/>
<path d="M5.80646 26.129H7.74194V28.0645H5.80646V26.129Z" fill="#227FEB"/>
<path d="M9.67743 26.129H19.3548V28.0645H9.67743V26.129Z" fill="#227FEB"/>
<path fill-rule="evenodd" clip-rule="evenodd" d="M57.0968 39.6774C58.6972 39.6774 60 38.3747 60 36.7742V21.873C60 19.9587 58.5706 18.3115 56.6767 18.0407L53.2258 17.5479V15.929C54.4104 14.8653 55.1613 13.3277 55.1613 11.6129V9.67742C55.1613 6.47508 52.5572 3.87097 49.3548 3.87097C46.1525 3.87097 43.5484 6.47508 43.5484 9.67742V11.6129C43.5484 13.3268 44.2992 14.8644 45.4839 15.929V17.5479L40.0606 18.3233L36.7298 14.5161H36.7742V9.67742H38.7097V3.87097H28.4652L24.5943 0H14.1154L10.2445 3.87097H0V9.67742H1.93548V32.9032H0V38.7097H9.67742V41.431L3.20895 58.0645H0V60H60V58.0645H56.129V39.4993C56.4329 39.608 56.7561 39.6774 57.0968 39.6774ZM50.2711 27.7153L49.3548 28.6316L48.4386 27.7153L49.2424 21.2837C49.2595 21.2841 49.2762 21.2855 49.293 21.2869C49.3133 21.2886 49.3336 21.2903 49.3548 21.2903C49.3761 21.2903 49.3964 21.2886 49.4167 21.2869L49.4168 21.2869C49.4336 21.2855 49.4502 21.2841 49.4673 21.2837L50.2711 27.7153ZM49.3548 5.80645C47.2199 5.80645 45.4839 7.54253 45.4839 9.67742V11.6129C45.4839 13.7478 47.2199 15.4839 49.3548 15.4839C51.4897 15.4839 53.2258 13.7478 53.2258 11.6129V9.67742C53.2258 7.54253 51.4897 5.80645 49.3548 5.80645ZM49.3548 17.4194C50.0343 17.4194 50.6836 17.2956 51.2903 17.0806V18.1211C51.0503 18.4915 50.3835 19.3548 49.3548 19.3548C48.3242 19.3548 47.6566 18.4877 47.4194 18.1211V17.0806C48.0261 17.2956 48.6753 17.4194 49.3548 17.4194ZM47.3612 20.7242C46.7285 20.3391 46.2678 19.8278 45.9744 19.4323L39.2942 20.3864L32.7714 12.9317C32.5762 12.7082 32.2937 12.5806 31.9964 12.5806C31.4294 12.5806 30.9677 13.0423 30.9677 13.6093V13.8154C30.9677 14.0488 31.0481 14.277 31.1931 14.459L37.9163 22.8629C38.1011 23.093 38.3765 23.2258 38.6719 23.2258H44.5161V32.9032H54.1936V23.2258H56.129V36.7742C56.129 37.3072 56.5638 37.7419 57.0968 37.7419C57.6298 37.7419 58.0645 37.3072 58.0645 36.7742V21.872C58.0645 20.9156 57.3505 20.0915 56.4031 19.9559L52.7353 19.4323C52.4428 19.8278 51.9821 20.3382 51.3484 20.7242L52.3096 28.4137L49.3548 31.3684L46.4001 28.4137L47.3612 20.7242ZM16.4516 42.5806V58.0645H9.15669L15.1781 42.5806H16.4516ZM20.3226 42.5806H18.3871V58.0645H20.3226V42.5806ZM22.2581 42.5806H23.5315L29.553 58.0645H22.2581V42.5806ZM27.4025 42.5806H25.6083L31.6298 58.0645H33.424L27.4025 42.5806ZM29.0323 41.431V38.7097H38.7097V32.9032H36.7742V24.4402C37.2987 24.8971 37.9626 25.1613 38.6719 25.1613H42.5806V58.0645H35.5007L29.0323 41.431ZM48.3871 34.8387H44.5161V58.0645H48.3871V34.8387ZM1.93548 5.80645H11.0459L14.9168 1.93548H23.7928L27.6638 5.80645H36.7742V7.74194H1.93548V5.80645ZM34.8387 9.67742H3.87097V32.9032H34.8387V22.1139L29.6815 15.6677C29.2624 15.1432 29.0323 14.4849 29.0323 13.8154V13.6093C29.0323 11.9758 30.3629 10.6452 31.9964 10.6452C32.8517 10.6452 33.6649 11.0137 34.2282 11.6573L34.8387 12.3552V9.67742ZM1.93548 34.8387H36.7742V36.7742H1.93548V34.8387ZM27.0968 40.6452V38.7097H11.6129V40.6452H27.0968ZM11.3072 42.5806H13.1014L7.07992 58.0645H5.28572L11.3072 42.5806ZM50.3226 34.8387V58.0645H54.1936V34.8387H50.3226Z" fill="#227FEB"/>
<path fill-rule="evenodd" clip-rule="evenodd" d="M21.2903 25.1613C21.2903 21.9589 23.8945 19.3548 27.0968 19.3548C30.2991 19.3548 32.9032 21.9589 32.9032 25.1613C32.9032 28.3636 30.2991 30.9677 27.0968 30.9677C23.8945 30.9677 21.2903 28.3636 21.2903 25.1613ZM26.1291 24.1935V21.4278C24.7753 21.7799 23.7154 22.8397 23.3633 24.1935H26.1291ZM23.3633 26.129H26.1291V28.8947C24.7753 28.5427 23.7154 27.4828 23.3633 26.129ZM30.9678 25.1613C30.9678 23.3633 29.7293 21.8602 28.0645 21.4278V28.8947C29.7293 28.4624 30.9678 26.9593 30.9678 25.1613Z" fill="#227FEB"/>
</svg>
