<svg width="60" height="60" viewBox="0 0 60 60" fill="none" xmlns="http://www.w3.org/2000/svg">
<path fill-rule="evenodd" clip-rule="evenodd" d="M60 10.6452H15.4839V0H6.77419C3.03884 0 0 3.03884 0 6.77419V43.5484C0 47.2828 3.03884 50.3226 6.77419 50.3226H10.6452V48.3871H6.77419C4.10629 48.3871 1.93548 46.2163 1.93548 43.5484C1.93548 40.8805 4.10629 38.7097 6.77419 38.7097H15.4839V12.5806H58.0645V48.3871H37.7419V50.3226H45.4839V53.2258H39.6774V55.1613H45.4839V58.0645H26.129V55.1613H37.7419V53.2258H26.129V50.3226H32.9032C34.5037 50.3226 35.8064 49.0198 35.8064 47.4194C35.8064 45.8189 34.5037 44.5161 32.9032 44.5161V46.4516C33.4362 46.4516 33.871 46.8854 33.871 47.4194C33.871 47.9533 33.4362 48.3871 32.9032 48.3871H20.3226V51.2903H18.3871V49.3548H12.5806V59.0323H18.3871V57.0968H20.3226V60H50.6004L59.8908 54.1936L53.6969 50.3226H60V10.6452ZM13.5484 36.7742H6.77419C4.88029 36.7742 3.16548 37.5553 1.93548 38.8113V6.77419C1.93548 4.10629 4.10629 1.93548 6.77419 1.93548H13.5484V36.7742ZM49.3548 50.3226H47.4194V58.0645H49.3548V50.3226ZM14.5161 57.0968V51.2903H16.4516V57.0968H14.5161ZM18.3871 53.2258V55.1613H20.3226V53.2258H18.3871ZM22.2581 50.3226H24.1935V58.0645H22.2581V50.3226ZM56.2382 54.1936L51.2903 51.1008V57.2863L56.2382 54.1936Z" fill="#227FEB"/>
<path fill-rule="evenodd" clip-rule="evenodd" d="M26.129 14.5161V22.2581H22.2581V26.129H18.3871V31.9355H28.0645V26.129H24.1935V24.1936H35.8065V26.129H31.9355V31.9355H35.8065V34.438L32.2114 38.033C31.8329 37.8511 31.4148 37.742 30.9677 37.742C29.3673 37.742 28.0645 39.0447 28.0645 40.6452C28.0645 42.2456 29.3673 43.5484 30.9677 43.5484C32.5682 43.5484 33.871 42.2456 33.871 40.6452C33.871 40.1982 33.7618 39.78 33.5799 39.4015L36.7742 36.2072L39.9685 39.4015C39.7866 39.78 39.6774 40.1982 39.6774 40.6452C39.6774 42.2456 40.9802 43.5484 42.5806 43.5484C44.1811 43.5484 45.4839 42.2456 45.4839 40.6452C45.4839 39.0447 44.1811 37.742 42.5806 37.742C42.1336 37.742 41.7154 37.8511 41.3369 38.033L37.7419 34.438V31.9355H41.6129V26.129H37.7419V24.1936H49.3548V26.129H45.4839V31.9355H55.1613V26.129H51.2903V22.2581H47.4194V14.5161H26.129ZM26.129 30H20.3226V28.0645H26.129V30ZM30 40.6452C30 41.1791 30.4347 41.6129 30.9677 41.6129C31.5008 41.6129 31.9355 41.1791 31.9355 40.6452C31.9355 40.1112 31.5008 39.6774 30.9677 39.6774C30.4347 39.6774 30 40.1112 30 40.6452ZM43.5484 40.6452C43.5484 41.1791 43.1137 41.6129 42.5806 41.6129C42.0476 41.6129 41.6129 41.1791 41.6129 40.6452C41.6129 40.1112 42.0476 39.6774 42.5806 39.6774C43.1137 39.6774 43.5484 40.1112 43.5484 40.6452ZM33.871 30H39.6774V28.0645H33.871V30ZM53.2258 30H47.4194V28.0645H53.2258V30ZM45.4839 16.4516H28.0645V22.2581H45.4839V16.4516Z" fill="#227FEB"/>
<path d="M30 18.3871H31.9355V20.3226H30V18.3871Z" fill="#227FEB"/>
<path d="M33.871 18.3871H39.6774V20.3226H33.871V18.3871Z" fill="#227FEB"/>
<path d="M41.6129 18.3871H43.5484V20.3226H41.6129V18.3871Z" fill="#227FEB"/>
</svg>
