<svg width="60" height="60" viewBox="0 0 60 60" fill="none" xmlns="http://www.w3.org/2000/svg">
<path fill-rule="evenodd" clip-rule="evenodd" d="M54.7044 39.8418L56.0274 40.0828C58.3287 40.502 60 42.5031 60 44.8431V60H0V44.8431C0 42.5031 1.67134 40.502 3.97256 40.0819L10.6452 38.8694V37.3412C10.261 36.9679 9.92692 36.5341 9.67742 36.0347L8.2518 33.1858C7.91913 32.5172 7.74194 31.7682 7.74194 31.0221V26.4811C7.74194 22.5515 10.9395 19.3548 14.8682 19.3548C16.772 19.3548 18.5624 20.0962 19.9082 21.4425L20.9033 22.4371C22.3403 23.223 23.2258 24.7095 23.2258 26.3573V31.0221C23.2258 31.7682 23.0486 32.5172 22.7159 33.1858L21.2903 36.0356C21.0408 36.5351 20.7067 36.9689 20.3226 37.3422V38.8703L26.9952 40.0828C28.2408 40.3092 29.2888 41.009 30 41.9649C30.7112 41.009 31.7592 40.3092 33.0048 40.0828L34.3279 39.8418C33.9792 39.5149 33.655 39.1638 33.3899 38.7659L32.5578 37.5165L33.2893 36.9679C35.4714 35.3311 36.7742 32.726 36.7742 30V26.4811C36.7742 22.5515 39.9718 19.3548 43.9004 19.3548C45.8042 19.3548 47.5947 20.0962 48.9404 21.4425L49.9356 22.4371C51.3725 23.223 52.2581 24.7095 52.2581 26.3573V30C52.2581 32.726 53.5608 35.3311 55.743 36.9679L56.4745 37.5165L55.6423 38.7659C55.3772 39.1638 55.0531 39.5149 54.7044 39.8418ZM51.9618 39.3433C52.7141 39.0447 53.378 38.5575 53.8637 37.9267C52.7207 36.8999 51.8243 35.6373 51.2176 34.2466L50.3226 36.0356C50.0731 36.5351 49.739 36.9689 49.3548 37.3422V38.8703L51.9618 39.3433ZM38.7097 30H39.8438C41.5595 30 43.1883 29.4339 44.5161 28.3887C45.8439 29.4339 47.4728 30 49.1885 30H50.3226V31.0221C50.3226 31.47 50.2172 31.9189 50.0169 32.3206L48.5912 35.1695C48.096 36.1599 47.1018 36.7742 45.9947 36.7742H43.0366C41.9295 36.7742 40.9353 36.1599 40.4401 35.1695L39.0145 32.3206C38.8151 31.9189 38.7097 31.47 38.7097 31.0221V30ZM42.9369 42.6057L40.4032 40.7052L39.7218 40.8299L40.3616 44.6659L42.9369 42.6057ZM41.6129 39.1935V38.4918C42.067 38.6312 42.5438 38.7097 43.0376 38.7097H45.9956C46.4885 38.7097 46.9667 38.6312 47.4203 38.4928V39.1935L44.5171 41.371L41.6129 39.1935ZM49.3104 40.829L48.629 40.7052L46.0953 42.6047L48.6706 44.665L49.3104 40.829ZM43.9004 21.2903C45.2873 21.2903 46.591 21.8304 47.5715 22.8104L48.7812 24.0211L48.9225 24.0919C49.7853 24.5234 50.3226 25.3914 50.3226 26.3573V28.0645H49.1885C47.6816 28.0645 46.265 27.4781 45.2004 26.4125L44.5161 25.7274L43.8319 26.4125C42.7663 27.4781 41.3507 28.0645 39.8438 28.0645H38.7097V26.4811C38.7097 23.6185 41.0378 21.2903 43.9004 21.2903ZM37.8147 34.2457C37.208 35.6373 36.3116 36.8999 35.1685 37.9267C35.6534 38.5575 36.3182 39.0447 37.0705 39.3433L39.6774 38.8694V37.3412C39.2933 36.9679 38.9592 36.5341 38.7097 36.0347L37.8147 34.2457ZM33.3512 41.9876L37.8175 41.1753L38.9941 48.2382L43.5484 44.5946V58.0645H37.6866C37.5619 56.3516 37.1215 54.6599 36.3532 53.1242C35.995 52.4078 35.8064 51.6069 35.8064 50.8064C35.8064 50.006 35.995 49.205 36.3532 48.4887L36.7742 47.6476V45.4839H34.8387V47.1911L34.6218 47.6235C34.1313 48.6059 33.871 49.7069 33.871 50.8064C33.871 51.906 34.1313 53.007 34.6218 53.9894C35.2569 55.2572 35.6302 56.6507 35.7512 58.0645H30.9677V44.8431C30.9677 43.4402 31.9704 42.2381 33.3512 41.9876ZM15.4839 53.7928L16.3831 52.8941L15.6318 48.3871H15.336L14.5846 52.8941L15.4839 53.7928ZM11.371 40.7052L13.9047 42.6057L11.3294 44.6659L10.6896 40.8299L11.371 40.7052ZM15.034 46.4516H15.9337L16.9208 44.9702L15.4839 43.8201L14.046 44.9702L15.034 46.4516ZM17.064 42.6047L19.5977 40.7042L20.2791 40.828L19.6393 44.664L17.064 42.6047ZM18.5393 22.8104C17.5588 21.8304 16.255 21.2903 14.8682 21.2903C12.0056 21.2903 9.67742 23.6185 9.67742 26.4811V27.0339C10.8795 26.8633 11.9905 26.3185 12.8642 25.4448L13.5484 24.7596L14.2326 25.4448C15.2972 26.5104 16.7139 27.0968 18.2208 27.0968H21.2903V26.3573C21.2903 25.3914 20.7531 24.5234 19.8902 24.0919L19.7489 24.0211L18.5393 22.8104ZM9.98315 32.3206C9.78279 31.9189 9.67742 31.47 9.67742 31.0221V28.9666C11.0941 28.8172 12.4309 28.3008 13.5484 27.4219C14.8762 28.4662 16.505 29.0322 18.2208 29.0322H21.2903V31.0221C21.2903 31.47 21.1849 31.9189 20.9846 32.3206L19.559 35.1695C19.0638 36.1599 18.0696 36.7742 16.9624 36.7742H14.0044C12.8972 36.7742 11.903 36.1599 11.4078 35.1695L9.98315 32.3206ZM16.9634 38.7097H14.0053C13.5115 38.7097 13.0347 38.6312 12.5816 38.4918V39.1935L15.4848 41.371L18.388 39.1935V38.4928C17.9344 38.6312 17.4562 38.7097 16.9634 38.7097ZM1.93548 44.8431C1.93548 43.4392 2.93819 42.2381 4.31893 41.9867L8.78528 41.1744L9.96188 48.2373L12.5291 46.1837L13.4992 47.6372L12.5121 53.5575L15.4839 56.5297L18.4556 53.5575L17.4685 47.6372L18.4386 46.1837L21.0059 48.2373L22.1825 41.1744L26.6488 41.9867C28.0295 42.2381 29.0323 43.4402 29.0323 44.8431V58.0645H25.1613V45.4839H23.2258V58.0645H7.74194V45.4839H5.80645V58.0645H1.93548V44.8431ZM53.2811 58.0645H58.0645V44.8431C58.0645 43.4402 57.0618 42.2381 55.6811 41.9876L51.2147 41.1753L50.0381 48.2382L45.4839 44.5946V58.0645H51.3456C51.4704 56.3516 51.9117 54.6599 52.6791 53.1242C53.0373 52.4078 53.2258 51.6069 53.2258 50.8064C53.2258 50.006 53.0373 49.205 52.6791 48.4896L52.2581 47.6476V45.4839H54.1936V47.1911L54.4104 47.6235C54.9009 48.6059 55.1613 49.7069 55.1613 50.8064C55.1613 51.906 54.9009 53.007 54.4104 53.9894C53.7754 55.2572 53.4011 56.6507 53.2811 58.0645Z" fill="#227FEB"/>
<path d="M47.4194 49.3548H49.3548V51.2903H47.4194V49.3548Z" fill="#227FEB"/>
<path d="M47.4194 54.1935H49.3548V56.129H47.4194V54.1935Z" fill="#227FEB"/>
<path fill-rule="evenodd" clip-rule="evenodd" d="M41.6129 11.6129C41.6129 18.0166 36.4037 23.2258 30 23.2258C23.5963 23.2258 18.3871 18.0166 18.3871 11.6129C18.3871 5.20917 23.5963 0 30 0C36.4037 0 41.6129 5.20917 41.6129 11.6129ZM39.6774 11.6129C39.6774 6.27662 35.3363 1.93548 30 1.93548C24.6637 1.93548 20.3226 6.27662 20.3226 11.6129C20.3226 16.9492 24.6637 21.2903 30 21.2903C35.3363 21.2903 39.6774 16.9492 39.6774 11.6129Z" fill="#227FEB"/>
<path d="M29.0323 7.79109C27.9289 8.01601 27.0968 8.9932 27.0968 10.1613C27.0968 11.4948 28.1817 12.5807 29.5161 12.5807H30.4839C30.7499 12.5807 30.9677 12.7975 30.9677 13.0645C30.9677 13.3315 30.7499 13.5484 30.4839 13.5484H29.5161C29.2501 13.5484 29.0323 13.3315 29.0323 13.0645V12.5807H27.0968V13.0645C27.0968 14.2326 27.9289 15.2098 29.0323 15.4347V16.4516H30.9677V15.4347C32.0711 15.2098 32.9032 14.2326 32.9032 13.0645C32.9032 11.731 31.8183 10.6452 30.4839 10.6452H29.5161C29.2501 10.6452 29.0323 10.4283 29.0323 10.1613C29.0323 9.89432 29.2501 9.67743 29.5161 9.67743H30.4839C30.7499 9.67743 30.9677 9.89432 30.9677 10.1613V10.6452H32.9032V10.1613C32.9032 8.9932 32.0711 8.01601 30.9677 7.79109V6.7742H29.0323V7.79109Z" fill="#227FEB"/>
<path d="M35.8064 11.6129C35.8064 14.4774 33.6668 16.9449 30.8302 17.3527L31.1043 19.2679C34.8888 18.7259 37.7419 15.4347 37.7419 11.6129C37.7419 7.79108 34.8888 4.49991 31.1052 3.95792L30.8312 5.87308C33.6668 6.28087 35.8064 8.74843 35.8064 11.6129Z" fill="#227FEB"/>
<path d="M28.8947 19.2679L29.1688 17.3527C26.3332 16.9449 24.1935 14.4774 24.1935 11.6129C24.1935 8.74843 26.3332 6.28087 29.1698 5.87308L28.8947 3.95792C25.1112 4.49991 22.2581 7.79108 22.2581 11.6129C22.2581 15.4347 25.1112 18.7259 28.8947 19.2679Z" fill="#227FEB"/>
<path d="M12.5806 3.87097H14.5161V5.80646H12.5806V3.87097Z" fill="#227FEB"/>
<path d="M10.6452 5.80646H12.5806V7.74194H10.6452V5.80646Z" fill="#227FEB"/>
<path d="M12.5806 7.74194H14.5161V9.67743H12.5806V7.74194Z" fill="#227FEB"/>
<path d="M14.5161 5.80646H16.4516V7.74194H14.5161V5.80646Z" fill="#227FEB"/>
<path d="M46.4516 9.67743H48.3871V11.6129H46.4516V9.67743Z" fill="#227FEB"/>
<path d="M44.5161 11.6129H46.4516V13.5484H44.5161V11.6129Z" fill="#227FEB"/>
<path d="M46.4516 13.5484H48.3871V15.4839H46.4516V13.5484Z" fill="#227FEB"/>
<path d="M48.3871 11.6129H50.3226V13.5484H48.3871V11.6129Z" fill="#227FEB"/>
</svg>
