<svg width="60" height="60" viewBox="0 0 60 60" fill="none" xmlns="http://www.w3.org/2000/svg">
<path d="M16.3094 28.6268L17.4921 28.0357C18.036 28.3424 18.6087 28.5805 19.2079 28.7478L19.6247 30H22.9551L23.3728 28.7478C23.9719 28.5815 24.5456 28.3433 25.0885 28.0357L26.2713 28.6268L28.6268 26.2713L28.0357 25.0885C28.1255 24.9302 28.2087 24.7696 28.2852 24.608L26.5364 23.7782C26.4182 24.0263 26.2798 24.2711 26.1243 24.505L25.8124 24.9728L26.2722 25.889L25.8899 26.2713L24.9718 25.8124L24.505 26.1243C23.8732 26.5463 23.1767 26.8345 22.4353 26.9824L21.8843 27.093L21.5602 28.0645H21.0196L20.6964 27.093L20.1454 26.9824C19.404 26.8345 18.7084 26.5453 18.0757 26.1243L17.6089 25.8124L16.6907 26.2713L16.3084 25.889L16.7682 24.9728L16.4564 24.505C16.0344 23.8732 15.7471 23.1767 15.5982 22.4353L15.4886 21.8843L14.5161 21.5602V21.0205L15.4886 20.6964L15.5982 20.1454C15.7461 19.404 16.0344 18.7084 16.4564 18.0757L16.7682 17.6079L16.3084 16.6917L16.6907 16.3094L17.6089 16.7682L18.0757 16.4564C18.7075 16.0344 19.404 15.7461 20.1454 15.5982L20.6964 15.4877L21.0205 14.5161H21.5611L21.8843 15.4877L22.4353 15.5982C23.1767 15.7461 23.8722 16.0353 24.505 16.4564L24.9718 16.7682L25.8899 16.3094L26.2722 16.6917L25.8124 17.6079L26.1243 18.0757C26.2798 18.3096 26.4182 18.5544 26.5364 18.8025L28.2852 17.9727C28.2087 17.8111 28.1255 17.6504 28.0357 17.4921L28.6268 16.3094L26.2713 13.9538L25.0885 14.545C24.5447 14.2383 23.9719 14.0001 23.3728 13.8329L22.956 12.5807H19.6256L19.2079 13.8329C18.6087 13.9992 18.0351 14.2373 17.4921 14.545L16.3094 13.9538L13.9538 16.3094L14.545 17.4912C14.2383 18.0337 14.0001 18.6078 13.8338 19.2069L12.5807 19.6247V22.956L13.8338 23.3728C14.0001 23.9719 14.2383 24.5456 14.545 25.0885L13.9538 26.2703L16.3094 28.6268Z" fill="#227FEB"/>
<path fill-rule="evenodd" clip-rule="evenodd" d="M21.2903 1.93548C31.6364 1.93548 40.0866 10.1013 40.596 20.3226H38.6605C38.154 11.1687 30.568 3.87097 21.2903 3.87097C17.0361 3.87097 12.9298 5.43788 9.73176 8.28204L11.0166 9.72892C13.8621 7.199 17.5106 5.80645 21.2903 5.80645C29.5015 5.80645 36.2218 12.2362 36.725 20.3226H34.7896C34.2901 13.3036 28.434 7.74194 21.2903 7.74194C13.8191 7.74194 7.74193 13.8191 7.74193 21.2903C7.74193 28.7615 13.8191 34.8387 21.2903 34.8387C27.5943 34.8387 33.0105 30.5524 34.4621 24.4161L32.58 23.97C31.3344 29.2307 26.6923 32.9032 21.2903 32.9032C14.8866 32.9032 9.67742 27.6941 9.67742 21.2903C9.67742 14.8866 14.8866 9.67742 21.2903 9.67742C27.3675 9.67742 32.3593 14.372 32.8541 20.3226H20.7233L21.9745 19.0713L20.6061 17.7029L17.0186 21.2903L20.6061 24.8778L21.9745 23.5093L20.7233 22.2581H47.9864L51.8574 26.129H59.6305L57.2111 21.2903L59.6305 16.4516H51.8574L47.9864 20.3226H42.5565C42.0486 9.031 32.7057 0 21.2903 0C16.0027 0 10.923 1.97234 6.98636 5.5527L8.28865 6.984C11.8685 3.72874 16.4856 1.93548 21.2903 1.93548ZM52.6588 24.1935L50.7233 22.2581H55.5308L56.4986 24.1935H52.6588ZM56.4986 18.3871H52.6588L50.7233 20.3226H55.5308L56.4986 18.3871Z" fill="#227FEB"/>
<path d="M21.2903 36.7742C12.7531 36.7742 5.80646 29.8275 5.80646 21.2903C5.80646 17.5105 7.199 13.8621 9.72893 11.0166L8.28299 9.7308C5.43788 12.9298 3.87097 17.0361 3.87097 21.2903C3.87097 30.895 11.6857 38.7097 21.2903 38.7097C29.7359 38.7097 36.9405 32.6769 38.4233 24.3636L36.5176 24.0234C35.2007 31.4119 28.796 36.7742 21.2903 36.7742Z" fill="#227FEB"/>
<path fill-rule="evenodd" clip-rule="evenodd" d="M39.4752 56.4211C39.6089 56.7358 39.6774 57.0736 39.6774 57.4219C39.6774 57.6454 39.6396 57.8576 39.5862 58.0645H42.5806V60H0V58.0645H2.99442C2.94103 57.8576 2.90323 57.6454 2.90323 57.4219C2.90323 57.0736 2.97174 56.7358 3.10736 56.4182L10.2378 39.4809C4.1044 35.7398 0 28.986 0 21.2903C0 16.0027 1.97234 10.923 5.5527 6.98495L6.98494 8.28772C3.72874 11.8686 1.93548 16.4856 1.93548 21.2903C1.93548 31.9624 10.6182 40.6452 21.2903 40.6452C30.842 40.6452 39.0679 33.5128 40.4245 24.0561L42.3406 24.3311C41.4163 30.7693 37.595 36.2228 32.3282 39.4483L39.4752 56.4211ZM34.3492 58.0645L27.4356 41.646C26.3847 41.9683 25.3007 42.2022 24.1935 42.3572V58.0645H34.3492ZM22.2581 42.5362V58.0645H20.3226V42.5566C20.6439 42.5712 20.9662 42.5807 21.2903 42.5807C21.506 42.5807 21.7196 42.5676 21.9331 42.5545L21.9332 42.5544C22.0415 42.5478 22.1497 42.5412 22.2581 42.5362ZM8.23148 58.0645H18.3871V42.3775C17.2733 42.2253 16.1865 41.9886 15.1347 41.6701L8.23148 58.0645ZM5.48135 58.0645C5.12695 58.0645 4.83871 57.7763 4.83871 57.4219C4.83871 57.3359 4.85619 57.2537 4.89022 57.1733L11.946 40.4151C12.3912 40.6334 12.8457 40.8337 13.3074 41.0218L6.29694 57.6719C6.19629 57.9095 5.96428 58.0645 5.7058 58.0645H5.48135ZM36.2837 57.6719C36.3834 57.9095 36.6154 58.0645 36.8748 58.0645H37.0993C37.4537 58.0645 37.7419 57.7763 37.7419 57.4219C37.7419 57.3359 37.7245 57.2537 37.6928 57.1771L30.6252 40.3914C30.181 40.6112 29.7222 40.8049 29.2614 40.9934L36.2837 57.6719Z" fill="#227FEB"/>
<path d="M56.129 39.6774H58.0645V41.6129H56.129V39.6774Z" fill="#227FEB"/>
<path d="M56.129 44.5161H58.0645V46.4516H56.129V44.5161Z" fill="#227FEB"/>
<path d="M56.129 49.3548H58.0645V51.2903H56.129V49.3548Z" fill="#227FEB"/>
<path d="M60 56.129H58.0645V54.1935H56.129V56.129H54.1935V58.0645H56.129V60H58.0645V58.0645H60V56.129Z" fill="#227FEB"/>
<path d="M48.3871 47.4193H50.3226V49.3548H48.3871V47.4193Z" fill="#227FEB"/>
<path d="M48.3871 42.5807H50.3226V44.5161H48.3871V42.5807Z" fill="#227FEB"/>
<path d="M48.3871 37.7419H50.3226V39.6774H48.3871V37.7419Z" fill="#227FEB"/>
<path d="M50.3226 29.0323H48.3871V30.9677H46.4516V32.9032H48.3871V34.8387H50.3226V32.9032H52.2581V30.9677H50.3226V29.0323Z" fill="#227FEB"/>
</svg>
