<svg width="213" height="218" viewBox="0 0 213 218" fill="none" xmlns="http://www.w3.org/2000/svg">
<path d="M111 218C167.333 218 213 171.214 213 113.5C213 55.7862 167.333 9 111 9C54.667 9 9 55.7862 9 113.5C9 171.214 54.667 218 111 218Z" fill="#0069E4"/>
<path d="M102 209C158.333 209 204 162.214 204 104.5C204 46.7862 158.333 0 102 0C45.667 0 0 46.7862 0 104.5C0 162.214 45.667 209 102 209Z" fill="#227FEB"/>
<path d="M102 186C146.183 186 182 149.511 182 104.5C182 59.4888 146.183 23 102 23C57.8172 23 22 59.4888 22 104.5C22 149.511 57.8172 186 102 186Z" fill="#F9FBFF"/>
<path d="M102.5 162C133.152 162 158 136.48 158 105C158 73.5198 133.152 48 102.5 48C71.8482 48 47 73.5198 47 105C47 136.48 71.8482 162 102.5 162Z" fill="#227FEB"/>
<path d="M102 139C120.778 139 136 123.554 136 104.5C136 85.4462 120.778 70 102 70C83.2223 70 68 85.4462 68 104.5C68 123.554 83.2223 139 102 139Z" fill="white"/>
<rect x="111.003" y="86.84" width="12.95" height="37" transform="rotate(45 111.003 86.84)" fill="#227FEB"/>
<rect x="84.84" y="95.9969" width="12.95" height="37" transform="rotate(-45 84.84 95.9969)" fill="#227FEB"/>
</svg>
