<svg width="170" height="69" viewBox="0 0 170 69" fill="none" xmlns="http://www.w3.org/2000/svg">
<mask id="mask0" mask-type="alpha" maskUnits="userSpaceOnUse" x="0" y="0" width="170" height="69">
<rect width="170" height="69" fill="white"/>
</mask>
<g mask="url(#mask0)">
<path fill-rule="evenodd" clip-rule="evenodd" d="M56.6863 31.5748L11.7691 32.1678L0.967086 16.004C-0.367374 14.0055 0.893785 11.3024 3.2564 11.1013L35.6562 8.34125C41.9211 7.80762 47.8558 11.3816 50.4138 17.2313L56.6863 31.5748Z" fill="#227FEB"/>
<path fill-rule="evenodd" clip-rule="evenodd" d="M55.7738 32.0677L11.216 32.8356L1.06992 48.9017C-0.18326 50.8878 1.16233 53.4833 3.51125 53.6086L35.7336 55.3254C41.9652 55.6582 47.7232 51.9981 50.0563 46.2256L55.7738 32.0677Z" fill="#227FEB"/>
<path fill-rule="evenodd" clip-rule="evenodd" d="M107.758 22.532C87.5456 22.7421 28.9729 28.6571 5.32322 31.1258C4.18392 31.2441 4.22184 32.9518 5.36502 33.0488C29.1154 35.0255 87.9262 39.7229 108.139 39.5143C114.88 39.443 126.662 39.1887 131.979 38.8233L131.616 22.7262C126.287 22.4732 114.498 22.4625 107.758 22.532" fill="#0069E4"/>
<path fill-rule="evenodd" clip-rule="evenodd" d="M162.552 27.9182L153.88 28.0812C149.938 25.9539 142.421 22.7612 132.187 22.3807L132.416 38.5274C142.632 37.7623 150.057 34.2886 153.936 32.0146L163.482 31.8356L162.552 27.9182Z" fill="#DAE0EA"/>
</g>
</svg>
